<svg id="Layer_1" data-name="Layer 1" xmlns="http://www.w3.org/2000/svg" viewBox="0 0 1007.47 302.88"><defs><style>.cls-1{opacity:0.51;}.cls-2{fill:none;stroke:#000;stroke-miterlimit:10;stroke-width:15px;}</style></defs><g class="cls-1"><path class="cls-2" d="M155.87,295a142.5,142.5,0,0,1,0-285Z" transform="translate(-5.52 -1.06)"/><path class="cls-2" d="M440.86,296.44a142.5,142.5,0,0,1,0-285Z" transform="translate(-5.52 -1.06)"/><path class="cls-2" d="M584.08,11.45a142.5,142.5,0,1,1,0,285Z" transform="translate(-5.52 -1.06)"/><path class="cls-2" d="M585.17,151.05a142.5,142.5,0,0,1,285,0Z" transform="translate(-5.52 -1.06)"/><path class="cls-2" d="M298,152.5a142.5,142.5,0,1,1-285,0Z" transform="translate(-5.52 -1.06)"/><path d="M870.49,26.41a127.5,127.5,0,0,1,90.15,217.65,127.49,127.49,0,1,1-180.3-180.3,126.65,126.65,0,0,1,90.15-37.35m0-15A142.5,142.5,0,1,0,1013,153.91,142.5,142.5,0,0,0,870.49,11.41Z" transform="translate(-5.52 -1.06)"/><path d="M513.2,23.56a56.61,56.61,0,1,1-56.61,56.61A56.67,56.67,0,0,1,513.2,23.56m0-15a71.61,71.61,0,1,0,71.61,71.61A71.61,71.61,0,0,0,513.2,8.56Z" transform="translate(-5.52 -1.06)"/></g></svg>